<?xml version="1.0" standalone="no"?>
<!DOCTYPE svg PUBLIC "-//W3C//DTD SVG 20010904//EN"
 "http://www.w3.org/TR/2001/REC-SVG-20010904/DTD/svg10.dtd">
<svg version="1.0" xmlns="http://www.w3.org/2000/svg"
 width="227.000000pt" height="215.000000pt" viewBox="0 0 227.000000 215.000000"
 preserveAspectRatio="xMidYMid meet">

<g transform="translate(0.000000,215.000000) scale(0.100000,-0.100000)"
fill="#000000" stroke="none">
<path d="M718 1753 c233 -2 611 -2 840 0 229 1 39 2 -423 2 -462 0 -650 -1
-417 -2z"/>
<path d="M696 1591 c-3 -4 -28 -72 -55 -150 l-50 -142 32 3 c26 2 33 9 41 36
9 31 10 32 67 32 58 0 59 -1 67 -32 7 -28 13 -34 41 -36 25 -3 32 0 29 10 -3
7 -27 75 -53 151 l-48 137 -33 0 c-18 0 -35 -4 -38 -9z m68 -148 c7 -21 4 -23
-33 -23 l-40 0 15 43 c26 75 25 74 39 37 7 -19 15 -45 19 -57z"/>
<path d="M920 1513 c-65 -34 -78 -132 -23 -187 34 -34 112 -37 143 -6 41 41 8
76 -37 40 -32 -25 -38 -25 -63 0 -26 26 -26 81 -2 103 23 21 41 21 68 2 18
-12 24 -12 40 0 19 14 19 14 -2 35 -29 29 -81 35 -124 13z"/>
<path d="M1120 1513 c-58 -30 -77 -101 -45 -163 20 -38 43 -50 98 -50 34 0 49
6 67 25 22 23 22 27 8 41 -15 15 -19 14 -46 -6 -30 -22 -32 -22 -56 -6 -21 13
-26 25 -26 56 0 61 47 92 84 55 13 -13 19 -13 36 -3 25 16 25 20 1 42 -28 26
-81 30 -121 9z"/>
<path d="M1443 1516 c-18 -8 -33 -11 -33 -6 0 16 -52 11 -72 -7 -17 -15 -18
-15 -18 0 0 11 -8 17 -25 17 l-25 0 0 -110 0 -110 30 0 30 0 0 74 c0 47 5 77
13 83 21 18 68 22 74 7 4 -11 9 -10 28 2 29 19 80 15 80 -6 0 -8 -17 -19 -41
-26 -71 -21 -84 -31 -84 -69 0 -18 7 -41 16 -49 20 -20 78 -21 97 -1 13 13 16
13 27 0 19 -23 70 -20 70 4 0 10 -7 21 -15 25 -11 4 -15 22 -15 74 0 55 -4 72
-19 86 -26 24 -80 29 -118 12z m87 -122 c0 -29 -21 -54 -44 -54 -27 0 -42 26
-25 46 9 11 20 15 62 23 4 0 7 -6 7 -15z"/>
<path d="M1310 1075 l0 -155 30 0 30 0 0 74 c0 79 13 106 50 106 29 0 40 -31
40 -109 0 -69 1 -71 25 -71 25 0 25 0 25 94 0 90 -1 96 -26 115 -31 25 -49 26
-86 7 l-28 -15 0 55 c0 53 0 54 -30 54 l-30 0 0 -155z"/>
<path d="M670 1195 c0 -23 4 -25 40 -25 l40 0 0 -125 0 -125 30 0 30 0 0 125
0 125 46 0 c41 0 45 2 42 23 -3 21 -7 22 -115 25 l-113 3 0 -26z"/>
<path d="M950 1133 c-65 -34 -78 -138 -23 -189 31 -29 106 -33 141 -8 46 32
13 65 -37 37 -27 -16 -30 -16 -55 0 -49 32 -34 47 48 47 73 0 74 -1 84 -29 17
-49 50 -71 104 -71 35 0 54 6 68 20 41 41 8 76 -37 40 -32 -25 -38 -25 -63 0
-26 26 -26 81 -2 103 23 21 41 21 68 2 18 -12 24 -12 40 -1 18 14 18 15 0 35
-44 49 -145 30 -170 -31 l-14 -33 -7 27 c-15 58 -84 83 -145 51z m88 -55 c3
-15 -4 -18 -43 -18 -43 0 -45 1 -35 21 14 26 73 24 78 -3z"/>
<path d="M1530 695 l0 -155 30 0 30 0 0 79 c0 85 10 105 52 99 22 -3 23 -8 26
-90 l3 -88 29 0 30 0 0 90 c0 83 -2 93 -25 115 -28 29 -48 31 -87 11 l-28 -15
0 55 c0 53 0 54 -30 54 l-30 0 0 -155z"/>
<path d="M488 834 c-5 -4 -8 -72 -8 -152 l0 -144 95 4 c80 2 98 6 116 24 32
32 30 90 -4 119 -22 20 -24 25 -12 35 22 18 19 74 -5 95 -15 13 -41 20 -98 23
-42 2 -80 1 -84 -4z m142 -59 c6 -8 9 -23 5 -35 -5 -16 -15 -20 -51 -20 -44 0
-44 0 -44 35 0 34 1 35 39 35 21 0 44 -6 51 -15z m20 -125 c20 -37 -3 -60 -60
-60 l-50 0 0 40 0 40 50 0 c39 0 52 -4 60 -20z"/>
<path d="M1188 756 c-16 -8 -28 -11 -28 -5 0 5 -13 9 -30 9 l-30 0 0 -110 0
-110 30 0 30 0 0 74 c0 79 13 106 50 106 29 0 40 -31 40 -109 0 -69 1 -71 25
-71 25 0 25 0 25 93 0 98 -3 108 -37 126 -28 14 -42 14 -75 -3z"/>
<path d="M1380 753 c-58 -30 -77 -101 -45 -163 20 -38 43 -50 98 -50 34 0 49
6 67 25 22 23 22 27 8 41 -15 15 -19 14 -46 -6 -30 -22 -32 -22 -56 -6 -21 13
-26 25 -26 56 0 61 47 92 84 55 13 -13 19 -13 36 -3 25 16 25 20 1 42 -28 26
-81 30 -121 9z"/>
<path d="M730 650 l0 -110 30 0 30 0 0 66 c0 81 11 104 50 104 29 0 30 -1 30
-49 0 -53 14 -101 33 -113 21 -14 80 -8 99 9 17 15 18 15 18 0 0 -11 8 -17 25
-17 l25 0 0 110 0 110 -30 0 -30 0 0 -80 c0 -76 -1 -81 -25 -92 -42 -19 -55 2
-55 93 l0 79 -60 0 c-46 0 -61 -4 -69 -17 -10 -17 -10 -17 -11 0 0 12 -8 17
-30 17 l-30 0 0 -110z"/>
<path d="M718 313 c233 -2 611 -2 840 0 229 1 39 2 -423 2 -462 0 -650 -1
-417 -2z"/>
</g>
</svg>
